<svg width="512" height="512" viewBox="0 0 512 512" fill="none" xmlns="http://www.w3.org/2000/svg">
  <rect width="512" height="512" rx="256" fill="#FFFFFF"/>

  <!-- Robot head -->
  <rect x="180" y="142" width="152" height="128" rx="28" fill="#5B2A86"/>
  <rect x="176" y="150" width="160" height="120" rx="32" fill="#6F3BC2" opacity="0.22"/>
  <rect x="201" y="170" width="18" height="18" rx="5" fill="#06B6D4"/>
  <rect x="293" y="170" width="18" height="18" rx="5" fill="#06B6D4"/>
  <circle cx="218" cy="193" r="16" fill="#3B1D61"/>
  <circle cx="294" cy="193" r="16" fill="#3B1D61"/>
  <circle cx="218" cy="193" r="7" fill="#67E8F9"/>
  <circle cx="294" cy="193" r="7" fill="#67E8F9"/>
  <circle cx="220" cy="191" r="2.5" fill="#FFFFFF"/>
  <circle cx="296" cy="191" r="2.5" fill="#FFFFFF"/>
  <path d="M222 225C231 233 281 233 290 225" stroke="#FFFFFF" stroke-width="4" stroke-linecap="round"/>
  <rect x="245" y="266" width="22" height="18" rx="5" fill="#5B2A86"/>

  <!-- Antennas -->
  <path d="M210 142L195 126" stroke="#5B2A86" stroke-width="10" stroke-linecap="round"/>
  <path d="M302 142L317 126" stroke="#5B2A86" stroke-width="10" stroke-linecap="round"/>
  <circle cx="192" cy="123" r="12" fill="#5B2A86"/>
  <circle cx="320" cy="123" r="12" fill="#5B2A86"/>
  <circle cx="192" cy="123" r="4" fill="#67E8F9"/>
  <circle cx="320" cy="123" r="4" fill="#67E8F9"/>
  <path d="M238 140C246 128 266 128 274 140" stroke="#F59E0B" stroke-width="10" stroke-linecap="round"/>
  <path d="M240 138C247 133 265 133 272 138" stroke="#10B981" stroke-width="7" stroke-linecap="round"/>

  <!-- Arms -->
  <path d="M175 226C156 229 150 246 155 260" stroke="#5B2A86" stroke-width="10" stroke-linecap="round"/>
  <path d="M337 226C356 229 362 246 357 260" stroke="#5B2A86" stroke-width="10" stroke-linecap="round"/>
  <path d="M154 259C145 253 136 255 131 266" stroke="#5B2A86" stroke-width="10" stroke-linecap="round"/>
  <path d="M358 259C367 253 376 255 381 266" stroke="#5B2A86" stroke-width="10" stroke-linecap="round"/>
  <circle cx="129" cy="268" r="11" fill="#5B2A86"/>
  <circle cx="383" cy="268" r="11" fill="#5B2A86"/>

  <!-- Floating Z cards -->
  <rect x="118" y="128" width="48" height="48" rx="8" transform="rotate(-12 118 128)" fill="#B7F36A"/>
  <text x="141" y="160" text-anchor="middle" font-family="Arial, Helvetica, sans-serif" font-size="28" font-weight="700" fill="#6B8E23">Z</text>
  <rect x="346" y="128" width="48" height="48" rx="8" transform="rotate(12 346 128)" fill="#B7F36A"/>
  <text x="370" y="160" text-anchor="middle" font-family="Arial, Helvetica, sans-serif" font-size="28" font-weight="700" fill="#6B8E23">Z</text>

  <!-- Brand name -->
  <text x="256" y="360" text-anchor="middle" font-family="Arial, Helvetica, sans-serif" font-size="58" font-weight="800" fill="#F4B400" stroke="#5B2A86" stroke-width="8" paint-order="stroke fill">CodeKidzz</text>
  <text x="256" y="410" text-anchor="middle" font-family="Arial, Helvetica, sans-serif" font-size="24" font-weight="700" fill="#10A37F">Build. Create. Innovate.</text>
</svg>